<?xml version="1.0" encoding="UTF-8"?>
<!DOCTYPE svg PUBLIC "-//W3C//DTD SVG 1.1//EN" "http://www.w3.org/Graphics/SVG/1.1/DTD/svg11.dtd">
<!-- Creator: CorelDRAW 2020 (64-Bit) -->
<svg xmlns="http://www.w3.org/2000/svg" xml:space="preserve" width="8.4666mm" height="8.4666mm" version="1.1" style="shape-rendering:geometricPrecision; text-rendering:geometricPrecision; image-rendering:optimizeQuality; fill-rule:evenodd; clip-rule:evenodd"
viewBox="0 0 846.66 846.66"
 xmlns:xlink="http://www.w3.org/1999/xlink"
 xmlns:xodm="http://www.corel.com/coreldraw/odm/2003">
 <defs>
  <style type="text/css">
   <![CDATA[
    .fil1 {fill:#FFFFFD}
    .fil0 {fill:#87B11C;fill-rule:nonzero}
   ]]>
  </style>
 </defs>
 <g id="Capa_x0020_1">
  <metadata id="CorelCorpID_0Corel-Layer"/>
  <path class="fil0" d="M-0 211.66c0,-116.9 94.76,-211.66 211.66,-211.66l423.34 0c116.9,0 211.66,94.76 211.66,211.66l0 423.34c0,116.9 -94.76,211.66 -211.66,211.66l-423.34 0c-116.9,0 -211.66,-94.76 -211.66,-211.66l0 -423.34z"/>
  <path class="fil1" d="M127.85 570.82c10.78,0.04 7.1,0.92 10.11,-1.34 0.13,-0.1 0.47,-0.13 0.57,-0.44 0.1,-0.32 0.36,-0.34 0.58,-0.44 1.57,10.83 3.46,9.72 -7.78,11.8 -7.08,1.3 0.89,2.34 -6.21,2.63 0.94,-1.94 1.41,-2.39 2.65,-4.17 -8.24,-9.22 -8.28,-2.89 -22.3,-3.74 -1.77,-9.18 -0.51,-1.26 -3.63,-6.71 2.67,-2.92 2.69,-1.99 6.46,-3.47 4.2,-1.63 2.37,-3.59 5.28,-4.26 3.6,-0.82 0.13,-0.18 3.3,0.9 1.57,0.55 3.02,0.59 3.98,1 3.77,1.58 -0.05,3.41 6.59,2.63l0.4 5.61zm471.79 -45.42c-3.41,-0.15 -2.97,-0.17 -4.35,-1.65 -0.07,-0.19 -0.07,-0.46 -0.07,-0.59 0,-0.12 -0.04,-0.43 -0.03,-0.59 0,-0.17 0.01,-0.42 0.02,-0.61 0.01,-0.24 0.15,-1.03 0.17,-1.3 0.39,-5.6 -4.25,-6.55 1.79,-7.04 4.11,-0.34 10.34,2.25 12.12,3.96 -0.49,3.45 -3.96,8.09 -9.65,7.82zm-234.35 13.28c0.38,8.08 0.05,10.45 -7.62,7.31 -4.11,-1.68 -8.45,-3.27 -12.42,-5.28 -15.56,-7.84 -11.94,-16.13 -13.82,-20.55 -1.71,-3.99 -6.24,-1.96 -8.43,-5.61 3.75,-2.38 10.38,-2.64 15.42,-2.41 4.44,0.21 3.58,0.92 6.9,1.92 7.22,2.17 18.48,-6.65 19.97,24.62zm55.06 3.15c-1.84,-2.71 -3.81,-7.74 -1.23,-10.78 6.1,-7.19 4.76,-2.17 2,-23.75 -0.89,-6.97 1.48,-7.56 4.89,-10.17 2.19,1.36 6.86,7.45 9.98,10.64 5.12,5.28 7.52,3.12 4.55,13.23 -2.28,7.74 -0.04,10.06 -7.43,13.52 -11.32,5.32 -6.62,6.38 -12.76,7.31zm70.91 -30.1c2.5,-6.09 -0.29,-7.89 2.07,-11.02 0.94,-1.25 5.96,-5.74 7.45,-6.35 3.6,1.88 4.76,6.28 4.88,10.83 -6.05,4.66 -5.97,3.7 -14.4,6.54zm-229.24 -9.38c2.09,-2.69 0.18,-1.95 3.48,-3.06 2.65,2.63 4.03,5.72 7.14,8.66 8.18,7.73 5.32,16.3 -8.49,4.44 -6.19,-5.32 -4.9,1.6 -8.3,-9.69l6.17 -0.35zm62.73 30.01c-4.01,1.7 -4.21,0.51 -7.5,-0.72 -7.29,-2.71 -20.45,-4.51 -23.13,-5.75 -3.61,-1.66 -4.54,-7.6 -7.44,-11.87 -2.82,-4.14 -5.12,-7.23 -7.28,-12.58 1.92,1.03 1.63,1.29 3.75,1.73 2.16,0.45 0.85,-0.44 4.12,0.56 5.26,1.62 8.95,6.57 11.04,8.27 10.59,8.59 13.14,4.36 20.44,7.68 2.9,1.34 3.6,2.32 4.11,5.43 0.82,5.05 1.79,3.89 1.89,7.25zm138.11 -10.72c-14.28,11.95 -12.59,1.84 -7.36,-6.52 2.37,-3.78 2.45,-2.74 5.21,-5.28 3.56,-3.24 7.02,-7.02 12.74,-8.93 -0.94,2.64 -1.32,1.92 -3.05,4 1.86,5.07 0.6,3.91 4.8,6.43l-12.34 10.3zm-18.96 -26.23c6.39,-6.47 7.74,5.12 -0.21,13.31 -3.74,-0.46 -12.91,-7.76 -9.21,-9.86 2.48,-1.41 3.53,1.62 3.86,1.05 0.1,-0.16 0.34,0.31 0.54,0.41l5.02 -4.91zm-350.71 0.68c8.93,-1.54 11.17,9.28 17.51,-1.56 5.76,0.11 4.56,0.08 9.1,2.24 3.35,1.6 4.05,0.44 6.71,1.55 5.58,2.34 -12.84,9.9 -14.84,10.6 -4.22,1.49 -21.21,3.22 -24.95,0.81 -0.1,-3.72 1.59,-3.29 3.35,-7.18 1.02,-2.23 1.65,-4.13 3.12,-6.46zm420.16 3.22c-1.1,-1.92 -1.39,-2.89 -2.94,-4.85 -0.57,-0.71 -2.73,-3.17 -3.08,-4.34 -0.79,-2.74 0.56,-3.64 1.31,-5.45 0.75,-1.81 1.34,-3.93 2.1,-5.15 1.33,-0.1 9.77,1.85 11.4,2.44 5.67,2.05 1.22,4.15 10.48,1.84 -1.45,3.16 -6.37,7.12 -9.03,8.62 -4.15,2.32 -7.16,5.42 -10.24,6.89zm161.09 -60.34c3.05,-1.24 8.48,-3.81 12.22,-2.4 -0.04,2.33 -1.24,6.12 -2.51,8.1 -1.47,2.25 -3.13,2.28 -5.88,3.77 -3.74,2.01 -7.81,7.34 -11.48,7.03 -2.78,-7.85 6.63,-8.57 9.29,-9.85 0.37,-7.22 -1.27,-1.45 -1.64,-6.65zm-394.96 -26.76c0.87,-5.3 -0.3,-5.7 4.16,-7.73 -0.29,4.11 -0.64,0.57 -1.53,4.93 2.03,1.82 4.48,3.22 6.46,5.46 -1.88,2.16 -5.83,8.57 -9.63,8.6 -2.86,0.03 -5.2,-1.92 -6.79,-2.69 -2.38,-1.15 -0.66,-0.48 -3.29,-0.56l-2.27 -0.31c-0.09,-0.21 -0.39,-0.1 -0.54,-0.22 1.5,-2.86 3.58,-1.95 6.85,-3.63 2.48,-1.3 3.98,-2.56 6.58,-3.85zm-89.08 -57.63c0.11,-0.17 0.34,-0.33 0.43,-0.4 5.49,-4.8 1.81,-2.42 4.29,-5.92 7.62,-1.11 3.99,-0.55 8.52,1.99 2.28,1.26 5.76,2.1 7.97,1.33 5.67,-1.97 2.68,-3.88 9.19,-0.84 5.14,2.38 2.84,-0.9 5.52,2.23 -3.4,1.61 -6.11,-0.9 -10.94,-1.41 -0.05,4.83 1.39,3.44 -1.94,7.43 -3.92,4.7 -0.91,3.15 -2.8,7.64 -2.9,1.13 -8.79,-2.93 -10.9,-4.46 -3.7,-2.69 -7.15,-1.3 -9.34,-7.59zm342.3 -37.34c1.23,-3.89 -0.4,-2.38 1.84,-4.71 2.26,1.2 0.66,0.98 1.6,3.67l6.21 0.15c-0.25,-5.11 -0.92,-2.03 0.23,-3.59 2.8,2.46 1.94,2.34 4.03,4.84 0.63,0.76 0.39,0.38 1.17,1.2 1.7,-0.2 3.99,-2.21 4,-2.35l0.06 12.69c9.92,10.33 11.2,-2.69 16.38,3.73 -4.43,10.5 -8.67,-1.75 -23.33,0.72 -11.07,1.86 -10.37,-1.23 -21.26,-10 -0.08,-2.64 0.47,-1.12 1.56,-4.44 -0.71,0.12 -3.51,0.76 -3.64,0.75 -2.35,-0.17 -1.31,0.09 -2.51,-1.5 4.8,-3.46 4.51,-0.11 13.66,-1.16zm-239.7 -44.28c11.17,-2.1 10,-0.24 13.7,-7.13 3.25,-6.06 6.12,-4.06 9.02,-4.76 2.44,-0.6 3.23,-2.9 4.37,-1.45 1.4,4.92 -6.83,3.79 -9.04,4.92 0.31,3.59 0,2.08 3.25,3.7 0.55,4.93 -0.04,4.47 -0.5,8.79 -0.63,5.9 1.55,0.8 2.13,6 -3.9,2.61 -10.47,3.09 -15.63,3.05 -0.57,1.64 -1.02,2.28 -1.95,3.42 -5.21,-1.57 -5.81,0.37 -9.49,-2.77 -0.39,-4.89 1.09,-0.31 0.85,-4.43 -0.15,-2.33 -0.91,-1.17 -1.8,-4.31 2.29,-2.3 2.83,-2.54 5.09,-5.03zm50.08 -126.59c-5.92,4.2 -3.44,4.24 -7.76,9.81 -2.62,-0.87 -4.28,-2 -8.15,-1.94 -3.12,0.04 -5.72,0.83 -7.97,-0.64 1.38,-3.07 3.38,-1.78 6.52,-4.02 -0.55,-3.16 -2.39,-4.97 -4.22,-6.57l-4.81 5.38c-1.83,-1.45 -2.33,-3.02 -5.39,-3.34 -0.68,3.62 0.32,3.58 1.46,6.14 -1.52,1.49 -1.61,1.08 -3.07,3.22 1.84,2.4 0.73,0.47 2.71,1.83 1.7,1.16 1.32,0.31 2.34,2.37 -8.55,0.6 -7.63,-1.36 -12.98,-2.13 -5.59,-0.8 0.58,2.31 -4.35,0.3 -1.42,-0.58 -2.8,-2.45 -3.57,-3.66 -4.73,-7.41 -5.61,-1.61 -8.92,-5.56 -3.41,-4.07 1.49,-5.98 -8.23,-4.93l-1.81 3.49c-8.62,-4.57 -7.83,3.54 -11.25,7.2 -2.97,-0.83 -4.56,-3.42 -7.52,-5.11 -6.23,-3.58 -2.05,1.91 -9.08,-0.52 -0.79,-5.22 2.65,-4.85 -0.19,-9.37 -2.35,-1.06 -3.92,0.45 -4.85,2.51 -1.04,2.32 -0.21,4.31 -0.07,6.33l-3.6 2.42c0.92,7.49 5.02,3.73 8.05,7.57 -3.07,4.33 -5.88,2.26 -9.89,5.2 0.31,3.51 1.14,2.38 1.21,5.44 -2.88,0.01 -6.8,-2.77 -6.7,0.89 0.03,1.01 2.75,5.14 3.84,6.38 4.13,0.62 5.89,-0.88 9.45,1.85 0.71,6.27 -2.45,4.95 -6.77,6.04 -3,7.21 0.54,1.02 1.13,6.83 -3.41,1.74 -3.28,0.07 -7.36,3.21 0.62,2.78 3.93,8.05 -2.68,10.11 -1.76,-8.01 0.29,-8.32 -6.72,-6.2 -1.52,-1.49 -2.17,-1.77 -3.86,-3.84 -3.5,0.8 -1.93,1.53 -4.2,1.67 -1.04,0.07 -1.47,-0.65 -3.82,-0.71l1.25 3.95 -5.12 0.65c1.54,1.98 1.92,2.15 2.58,5.46 -7.19,4.16 -13.57,3.99 -11.64,16.23 7.85,0.58 14.79,-15.41 14.21,3.38 -6.6,0.87 -5.67,0.29 -11.82,2.49 -7.39,2.64 -4.02,-2.61 -10.6,2.62l-1.52 -2.18c-2.76,-2.53 -6.06,-0.47 -8.01,1.05 1.07,2.69 -0.96,0.44 3.01,2.01l0.03 5.11c-2.96,1.81 -3.65,0.43 -5.14,4.02 1.39,2.95 1.02,0.86 1.64,1.85 1.21,1.89 0.1,-1.35 0.53,1.3l-0.01 1.12c0.3,4.93 -0.46,1.49 2.66,4.76 -1.89,4.4 -0.86,1.98 -0.37,5.88l-8.91 1.6c-0.21,5.38 0.84,3.53 3.54,6.51 2.34,2.59 0.75,2.67 4.24,5.51 7.71,3.5 13.26,-10.16 22.46,5.86 -2.78,1.96 -6.21,2 -4.99,7.04 13.22,-2.67 12.84,3.69 16.82,9.78 5.05,0.85 5.79,-1.25 7.71,2.96l-4.48 1.11c1.99,1.62 2.46,0.94 2.79,4.28l-7.96 0.38c0.84,4.74 0.48,1.39 1.66,2.8 0.12,0.13 0.31,0.27 0.42,0.4 3.74,4.3 0.82,3.33 7.18,4.04 1.31,6.41 5.35,4.12 3.12,9.61 -8.21,1.92 -19.44,-0.16 -29.18,1.43l-1.58 -2.77c-1.29,-2.87 -0.12,-5.12 0.96,-7.75 1.51,-3.64 0.54,-3.36 0.98,-6.47 0.46,-3.21 0.5,-1.02 1.79,-4.1 -3.61,-3.84 -7.51,-4.93 -14.83,-4.46 -8.82,0.56 -5.88,6.31 -13.27,6.78 -0.93,-9.66 0.18,-3.26 -3.73,-8 0.77,-4.78 2.99,-2.81 4.63,-6.63 -2.22,-2.14 -3.09,-2.35 -4.74,-4.11l5.04 -1.1 0.46 -8.01c-4.51,0.55 -4.55,3.61 -7.02,6.27 -3.97,4.26 -5.64,-0.22 -8.09,-1.58 -6.45,2.24 -3.38,6.72 -6.44,8.85 -3.82,2.77 -5.44,-0.38 -8.83,-1.75 -2.3,2.99 -2.25,9.58 -2.38,13.17 -6.57,2.41 -1.79,1.15 -4.95,3.7 -2.46,1.99 -3.89,0.37 -7.41,-0.05 -0.05,9.92 -4.39,2.66 -4.95,9.08 -0.42,4.85 3.88,3.66 -1.21,9.67 -6.75,-1.28 -2.65,-4.52 -12,-4.9 -0.28,5.69 12.84,18.64 2.03,20.84l1.02 5.02c-3.01,-0.4 -2.92,-1.22 -4.24,-1.4 -4.01,-0.55 0.3,0.05 -3.21,0.65 -4.14,0.72 -3.26,-2.05 -8.32,-0.58l1.21 3.51c-1.84,1.55 -2.42,0.85 -3.17,2.73l4.81 1.29c-0.09,4.47 -1.35,2.47 -2.72,6.85 -1.13,3.59 0,4.65 0.45,7.67 -4.35,0.78 -7.17,-1.12 -9.65,-0.05 1.87,3.02 0.61,0.47 4.24,2.41 0.35,9.38 6.67,8.1 6.04,16.7l-6.35 0.21c-1.87,4 -1.6,3.58 -6.36,4.71 -0.94,6.43 -1.79,4.52 -3.1,8.13 2.09,3.48 2.25,2.72 4.53,4.89 -1.66,3.31 -3.85,8 -5.66,11.71 -2.66,5.47 -5.31,1.92 -9.77,7.13 -0.89,1.05 -6.07,9.37 -6.41,10.46 -0.8,2.5 -0.34,5.71 -0.11,8.41 0.37,4.51 1.09,2.49 1.3,6.61 -3.89,0.42 -3.1,-0.07 -6.34,-1.11 0.12,-3.48 0.89,-1.91 1.49,-5.76 -5.01,-3.36 -6.39,-3.28 -8.43,-10.27 -4.01,0.49 -6.03,3.39 -10.37,4.25 -2.23,-5.63 -5.65,-5.89 -13.34,-5.72 0.48,5.6 -0.06,4 -1.56,7.98 1.7,3.12 4.99,6.58 7.56,9.27 6.46,6.72 6.16,0.18 9.72,2.79 -3.13,5.12 -3.83,-0.88 -16.47,8.85 2.74,7.96 6.61,14.9 12.78,17.81 2.02,-2.86 0.21,-4.61 4.74,-4.82 0.04,2.83 -0.47,2.56 -0.63,4.84 -0.53,7.36 4.99,3.71 9.38,4.02 2.87,5.07 9.34,14.06 0.57,11.72 -3.7,-1 -4.52,-5.58 -8.85,-5.01 -5.35,0.7 -6.88,6.31 -5.95,11.57 5.9,0.33 3.88,-0.29 7.97,-1.59 7.54,-2.39 6.31,9.29 -0.14,11.02 -2.76,0.74 -1.29,-0.82 -3.77,1.27 -1.95,2.47 -2.86,6.15 -0.94,8.62l4.6 5.89c0.08,0.14 0.23,0.42 0.29,0.53 0.05,0.12 0.26,0.66 0.3,0.54 0.05,-0.12 0.2,0.37 0.32,0.54 4.25,1.78 4.62,-0.5 8.44,2.72 3.87,3.26 1.21,2.25 7.44,3.06 -1.04,2.29 -1.75,0.31 -3.36,4.35 2.16,3.68 12,6.54 6.83,15.36 -7.87,2.78 -1.39,-11.47 -13.75,-9.01 -2.31,19.03 7.92,10.95 12.27,17.05 -11.3,8.07 -17.73,-4.49 -24.61,14.99l-6.62 -0.49c-0.42,10.67 6.17,10.01 14.13,15.45 4.67,3.2 6.5,2.57 11.61,0.71 5.41,-1.97 5.89,1.21 11.9,0.9 0.71,1.49 0.75,3.05 5.12,2.59 3.8,-0.4 4.47,-1.42 5.29,-4.35 -4.77,-0.74 -3.85,-0.38 -7.83,0.64 4.85,-2.38 7.37,-4.75 9.62,-9.33l2.26 -3.59c8.89,9.33 9.24,3.97 20.23,8.14l-0.49 4.56c-4.94,1.41 -7.1,-2 -12.37,1.14 0.82,3.41 3.12,3.67 5.89,5.37 0.91,8.28 7.85,12.37 17.47,13.63 15.92,2.06 21.65,-7.06 22.99,-7.67 5.8,-0.18 5.84,1.58 10.23,2.89l-2.47 3.46c6.53,12.66 1.39,5.28 9.48,10.26 1.84,1.13 0.85,1.42 3.54,2.37 0.99,-4.27 0.17,-5.09 -0.39,-8.65 6.48,-4.48 4.8,-0.83 12.26,-2.81 4,-1.05 6.96,-4.06 8.16,-7.89l-4.48 -3.73c1.97,-3.09 4.69,-5.17 7.2,-8.07 3.3,-3.81 3.31,-7.15 8.8,-4.8 -0.9,5.98 -8.23,5.88 -5.61,13.68 4.93,-0.5 2.08,-1.13 5.3,-3.67 2.6,-2.05 0.74,0.15 5.6,0.56 4.9,-7.45 19.22,1.07 23.36,-7.69 6.52,-13.79 4.51,-16.45 -6.85,-17.3 -0.54,-5.27 3.67,-7.06 6.69,-9.43 6.47,-5.05 3.47,-2.28 10.88,-5.19 14.12,-5.56 17.83,-20.65 47.36,-9.38 3.99,1.52 7.18,3 11.82,4.23 8.11,2.15 6.98,3 10.95,4.36 5.75,1.97 6.78,0.37 11.81,4.25 5.01,3.88 4.31,3.49 11.36,4.65 5.48,0.9 6.88,3.7 10.54,5.61 6.46,3.35 14.77,4.19 18.53,12.87 2.39,5.54 1.44,5.71 5.16,10.88 4.34,6.01 1.77,6.14 0.04,12.12 -2.25,7.8 1.35,18.85 -0.64,26.67 -0.9,3.53 -2.1,3.3 -1.88,8.79 0.35,8.3 3.33,11.89 -0.82,19.06 -8.06,13.95 3.89,10.45 -19.66,25.4 -4.51,2.86 -10.63,5.78 -16.68,6.81 -6.36,1.09 -8.24,7.39 -16.4,3.07 -10.04,-5.33 -6.76,-1.43 -16.61,0.79 -3.15,0.71 -6.96,0.22 -9.61,1.56 -3.75,1.9 -2.37,3.97 -5.77,5.67 -8.43,3.85 -47.54,-3.4 -59.73,3.62 -3,1.72 -10.47,6.37 -12.04,9.05 122.26,0.78 244.54,0.15 366.79,0.06l21.53 -0.25c-1.85,-7.04 -17.53,-11.93 -27.96,-11.92l-16.88 0c-9.76,-0.01 -10.26,3.04 -16.92,-3.11 -3.38,-3.12 -9.13,-3.8 -12.96,-5.55 -13.21,-6.04 -19.43,8.5 -27.08,-3.49 -3.83,-6 -0.27,-6.74 -8.45,-9.96 -8.84,-3.48 -13.28,-12.04 -21.73,-15.28 -5.27,-2.02 -9.86,0.88 -16.35,-0.57 -4.15,-6.47 1.21,-8.07 -2.14,-14.71 -3.25,-6.42 -7.59,-4.87 -9.99,-7.73 -2.7,-3.32 0.02,-12.72 -2.04,-17.23 -2.7,-5.91 -1.34,-9.82 -2.71,-16.62 -1.62,-8.02 -6.09,-7.2 -6.41,-12.68 -0.16,-2.88 1.52,-5.04 2.1,-7.28 0.66,-2.56 0.38,-5.29 0.63,-7.93 0.84,-8.86 3.74,-6.65 7.94,-11.6 3.92,-4.62 12.4,-6.61 17.68,-10.46 1.99,-1.46 3.69,-2.12 6.09,-3.58 3.33,-2.04 6.82,-5.98 9.83,-8.63 3.38,-2.97 6.63,-6.24 12.82,-5.42 9.89,1.33 15.33,-8.72 28.22,4.79 3.58,3.76 6,4.57 10.36,8.1 4.78,3.88 2.41,8.89 10.17,9.4 8.46,0.55 7.53,0.92 13.07,5.16 8.35,6.4 19.3,5.64 22.99,-6.28 -2.05,-1.99 -2.37,-1.23 -3.58,-3.99 2.11,-2.44 8.88,-3.63 12.98,-2.82 1.82,7.52 -6.47,13.11 -9.86,15.74l8.12 3.71c2.64,1.08 6.61,0.64 10.14,1.49l-1.14 8.77c3.81,-0.01 8.6,-2.58 11.82,-1.36 3.49,1.34 5.73,4.39 9.3,5.98 7.25,3.2 17.22,8.09 23.97,2.84l-2.29 -12.53c4.03,-0.02 5.67,1.94 8.44,0.92 4.57,-1.7 -0.2,-2.79 6.46,-2.1 4.28,0.45 4.19,-0.35 6.9,-2.23 4.43,-3.09 10.67,-2.49 15.55,-4.56 4.47,-1.89 3.1,-1.45 8.06,-0.39l12.86 1.38c9.27,1.43 -1.01,10.79 17.68,11.1 2.85,-7.88 2.58,-3.87 6.65,-8.65 3.54,-4.16 2.1,-3.97 10.72,-3.51 0.04,5.07 -0.91,5.3 3.3,7.14 6.39,2.78 1.35,0.67 4.85,5.8 1.75,-2.59 0.95,-7.06 1.67,-9.88 4.23,0.84 0.6,2 6.32,1.66 2.67,-0.15 4.1,-1.27 5.95,-1.46 4.34,-0.47 4.35,3.66 9.76,3.36 0.92,-2.78 0.42,-5.52 1.44,-8.97 1.44,-4.81 -1.56,-2.2 -0.6,-6.98 3.7,0.12 1.13,1.22 4.41,2.91l0.59 -1.77c0.04,-0.16 0.08,-0.42 0.11,-0.56 0.54,-3.12 -0.9,0.96 0.09,-1.93 14.74,1.53 13.5,9.98 19.64,9.23 2.48,-6.96 -2.02,-6.04 -3.15,-11.82 -3.49,0.21 -3.48,0.99 -6.22,1.57 -2.13,0.44 -5.44,0.65 -7.66,0.72 2.04,-2.91 1.66,-1.51 3.81,-3.67 4.99,-5.03 3.79,-2.63 9.49,-1.31 3,0.68 3.45,-0.7 5.7,-1.54 8.4,5.68 3.68,3.55 12.77,-0.43 1.3,-0.56 1.6,-0.57 2.91,-1.96 2.24,-2.41 3.77,-5.95 5.44,-9.01 1.79,-0.06 3.97,0.13 5.56,0.02 8.55,-0.6 1.5,-6.76 6.03,-9.45 4.93,-1.16 7.16,2.46 10.97,-3.58 -1.15,-4.48 -2.35,-2.33 -1.73,-9.12 2.88,-1.64 5.83,-1.79 7.37,-4.55 -5.01,-3.99 -5.59,0 -9.12,1.72 -1.22,-1.87 -2.32,-3.22 -4.72,-4.28 -7.58,5.76 -3.53,4.01 -11.51,-1.18 -3.84,-2.49 -8.4,-3.97 -12.47,-5.9l1.03 -12.04c0.6,-6.72 4.16,-1.68 -0.93,-8.85 1.04,-1.27 0.85,-0.81 1.9,-1.88 2.04,-2.09 0.27,0.74 2.02,-2.44 -3.71,-0.83 -11.35,4.2 -15.23,4.15 -1.11,-2.58 -0.64,-3.94 -2.6,-6.35 -3.22,0.65 -2.63,1.98 -5.25,2.11 -1.57,-6.96 3.85,-10.07 -0.65,-14.58 -2.27,-2.27 -2.59,-1 -4.62,-5.1 -4.1,-8.26 -0.27,-8.06 5.07,-12.91 -3.63,-6.34 -2.86,-3.11 -0.21,-12.06 -1.67,-2.76 -4.64,-4.39 -7.19,-6.43 0.28,-3.28 1,-1.41 0.71,-5.64 -7.43,-3.3 -7.03,-0.2 -14.51,0.73 0.48,-5.31 3.41,-7.93 -2.28,-10.25 -1.9,2.06 -0.85,2.04 -2.42,4.66 -1.81,-1.01 0.08,0.35 -1.25,-1.14l-1.97 -2.74c-1.91,0.92 -2.1,1.48 -4.37,2.78 -2.9,1.67 -2.34,1.95 -4.51,2.88l-3.48 -4.14c1.65,-2.24 2.9,-2.31 2.74,-6.5 -7.74,-1.55 -7.93,3.37 -11.93,0.87 2.83,-4.4 10.8,-8.66 13.16,-15.27 -1.71,-2.21 -0.59,-1.08 -2.7,-2.54 -3.36,-2.3 -1.87,-3.75 -4.86,-6.39 -4.48,-3.95 -2.88,-1.56 -6.78,-1.26 -4.15,0.31 1.44,-0.61 -2.97,-0.67 -3.04,-0.04 -1.13,1.26 -7.64,0.35 -0.83,1.93 -0.6,2.38 -1.77,3.99 -3.66,-1.72 -0.86,-2.19 -4.44,-3.27 -3.01,-0.9 -4.42,0.94 -5.67,-1.14 -1.28,-2.14 2.91,-1.58 -2.8,-8.35 -4.11,1.76 -4.85,5.52 -6.65,6.29 -1.8,-2.93 0.18,-3.18 -1.34,-6.58 -2.59,-5.82 -12.09,0.17 -14.52,-7.11l17.47 0.96c2.22,-2.12 5.16,-7.3 7.24,-8.27 2.13,3.62 0.54,1.82 0.02,6.52 12.18,0.9 13.53,-1.65 21.52,-6.19 -0.84,-9.12 -10.21,-12.1 -8.18,-17.28 6.11,-2 -5.2,6.95 20.59,1.88 0.58,-1.16 0.81,-2.45 1.53,-3.79 1.64,-3 1.01,-0.3 2.48,-3.43 -5.09,-8.49 -13.95,-2.54 -22.31,-5.98 -5.24,-2.15 -2.27,-1.45 -7.61,-0.13 -0.82,-1.61 -2.68,-6.66 -2.3,-8.35 2,-4.49 8.81,-6.01 11.16,-10.49 2.33,-4.44 -0.37,-5.72 -0.76,-8.98 -0.44,-3.73 1.83,-3.61 -1.67,-6.75 -2.84,1.45 -4.26,3.8 -7.23,5.51 -5.53,-1.46 -5.85,-2.86 -5.57,-7.57l-3.61 -1.1c-0.61,-2.25 0.07,-2.14 -1.27,-4.33 -4.04,0.11 -2.55,0.94 -5.28,1.99 -5.49,-3.1 -1.69,-2.34 -4.37,-6.73 -3.99,-0.05 -4.38,0.96 -5.8,3.88l2.55 3.07c0.08,-0.14 0.35,0.36 0.43,0.59 -2.6,0.74 -1.96,1.08 -4.88,0.04 -1.06,-3.04 -0.19,-3.79 -0.25,-7.35l-8.77 -2.15c1.01,-2.61 6.22,-8.33 7.86,-9.57 3.58,-2.7 9.37,0.69 9.45,-5.34 -3.48,-1.47 -5.51,-0.04 -7.77,-2.69 -2.11,-2.47 -2.91,-3.92 -1.99,-6.7 5.61,-1.25 1.92,2.49 8.04,0.8 1.77,-5.27 -0.96,-4.49 -1.41,-10.16 -6.92,-0.19 -2.6,-0.24 -7.11,-2.36 -2.97,2.21 -2.1,2.37 -7.25,2.48 -1.06,7.17 -1.53,2.36 -4.01,6.4 -1.86,3.05 1,3.35 0.47,7.65l-4.23 0.11c0.08,-4.51 1.41,-0.03 1.41,-5.58 -2.74,-2.46 -5.22,-5.32 -8.86,-7.02 -3.1,-1.45 -8.55,-2.19 -10.49,-4.83 2.87,-6.41 3.37,2.23 2.47,-12.86 -6.16,0.27 -1.52,2.38 -6.35,3.09 -3.06,-8.11 7.71,-13.46 3.06,-24.8 -8.15,-5.3 -14.44,1.58 -18.37,-2.17 0.7,-4.12 2.01,-1.79 4.48,-1.29 3.12,-3.84 3.53,-6.13 5.36,-11.54 1.95,-5.77 0.02,-6.27 -2.15,-11.95 -8.76,-0.3 -8.11,3.88 -11.81,10.08l-8.85 0.2c-1.19,1.96 -0.87,2.72 -1.47,4.75 -1.88,6.41 -5.93,5.74 -0.48,11.92 -4.12,3.13 -1.22,3.86 -4.46,5.45 -3.55,-2.83 -0.31,-3.12 -2.03,-8.31 -2.2,-3.1 -9.81,-1.15 -14.09,-3.53l-3.96 -1.6c0.19,-3.43 2.49,-7.81 1.9,-9.98 -5.27,-0.57 -6.28,3.64 -7.78,8.09 -1.67,4.91 -5.21,6.1 -6.04,10.5 5.89,1.45 4.02,-1.89 7.69,0.17 -3.37,3.71 -3.09,-1.46 -6.91,4.7 -4.95,0.21 -3.57,0.84 -6.65,-1.41 -6.43,-4.69 -5.08,-4.77 0.83,-11.36 2.21,-2.48 2.02,-4.79 3.79,-8.26 5.54,-10.9 2.51,-7.9 -2.62,-15.05l1.7 -5.26c-3.75,-1.68 -5.42,1.8 -9.26,2.95l-0.99 -3.06c-0.83,-2.31 -2.68,-5.39 -5.44,-6.68 -3.28,2.41 -3.45,5.41 -7.34,7.52l-2.05 -2.09c0.87,-5.38 3.47,-2.38 3.96,-8.57 0.63,-8.13 -0.6,-5.73 -3.87,-8.22 -3.95,1.41 -2.65,2.65 -8.91,3.34l1.01 5.41c-2.94,0.13 -0.95,-0.1 -3.89,-1.26 -1.18,-0.47 -0.83,-0.57 -2.18,-0.51 -5.97,0.25 0.89,8.56 -4.06,12.26 -1.73,-0.85 -0.25,-0.25 -1.52,-1.48 -1.95,-1.92 2,0 -1.7,-1.53 -2.08,3.73 0.89,3.03 -0.39,7.61 -0.68,2.41 -0.43,1.02 -1.81,3.01l-1.82 2.82c-8.02,-3.55 -5.64,-0.16 -12.93,-8.58 -1.92,-2.19 -1.58,-1.22 -3.09,-4.13 -2.27,-4.36 -3.14,-5.34 -6.41,-8.04 -1.76,-1.45 -2.97,-2.08 -4.07,-3.21 -2.71,-2.81 0.25,-1.8 -3.24,-3.19 -2.82,1.66 -1.07,1.87 -3.06,5.75 -0.91,1.76 -2.48,3.39 -3.43,4.57 -4.78,-0.31 -2.29,-2.76 -7.56,-0.75l-0.4 5.71c0.38,0.22 6.97,3.31 7.57,2.28 0.11,-0.19 0.43,0.07 0.62,0.15 -0.19,0.1 -0.46,0.17 -0.6,0.2 -0.16,0.04 -0.44,0.15 -0.63,0.18 -0.2,0.04 -0.44,0.11 -0.67,0.14 -5.85,0.87 -12.48,-1.09 -18.37,-1.54 -1.29,-2.5 -0.06,-0.51 -0.43,-3.34l-3.54 -1.33c-3.09,-1.61 -5.96,-0.11 -8.89,1.02 0.72,-3.25 0.51,-2.99 -0.59,-5.87l-4.24 -0.19c-0.08,0.18 -0.15,0.45 -0.18,0.58l0.34 4.6c-4.98,-1.25 -0.32,-1.37 -5.18,-2.39 -1.67,2.3 -4.98,5.29 -5.85,8.13l-5.93 -1.07c1.38,-3.73 4.14,-4.04 0.72,-9.45 -5.95,-0.41 -4.16,0.41 -6.36,3.98 -0.71,1.17 -3.21,3.53 -4.89,3.34 -0.33,-0.72 -0.36,-0.23 -0.27,-1.55 0.22,-3.45 -0.55,1.41 0.19,-1.05 1.85,-6.13 7.98,-10.58 7.37,-18.69 -0.95,-0.38 -3.62,-0.9 -4.34,-1.23 -4.19,-1.92 -0.66,-5.59 -8.69,-6.35 -2.11,1.89 -2.21,1.86 -3.46,4.19 -4.75,-1.38 -3.52,-1.34 -7.07,1.7 -2.09,1.77 -2,2.42 -3.02,5.09 -4.1,-0.88 -0.89,-0.84 -3.08,-1.71 -3.25,-1.3 -6.64,2.58 -10.32,2.42 0.14,-3.53 1.16,-2.38 0.35,-6.17 -1.68,-0.9 -1.33,-0.96 -3.24,-1.74 -4.09,-1.67 -2.81,-3.9 -8.71,-3.65l-0.72 6.12c-3.05,1.18 -1.83,-0.44 -5.21,-1.24 -3.28,-0.79 -3.12,0.47 -6.58,-0.59 -2.29,-0.7 -2.52,-1.61 -4.38,-3.03 -4.34,-3.32 -4.61,-0.81 -5.02,-0.62l0.95 3.79z"/>
 </g>
</svg>
