<?xml version="1.0" encoding="UTF-8"?>
<!DOCTYPE svg PUBLIC "-//W3C//DTD SVG 1.1//EN" "http://www.w3.org/Graphics/SVG/1.1/DTD/svg11.dtd">
<!-- Creator: CorelDRAW 2020 (64-Bit) -->
<svg xmlns="http://www.w3.org/2000/svg" xml:space="preserve" width="8.4666mm" height="8.4666mm" version="1.1" style="shape-rendering:geometricPrecision; text-rendering:geometricPrecision; image-rendering:optimizeQuality; fill-rule:evenodd; clip-rule:evenodd"
viewBox="0 0 846.66 846.66"
 xmlns:xlink="http://www.w3.org/1999/xlink"
 xmlns:xodm="http://www.corel.com/coreldraw/odm/2003">
 <defs>
  <style type="text/css">
   <![CDATA[
    .fil1 {fill:#000066}
    .fil2 {fill:#FEFDFE}
    .fil0 {fill:#FF6100;fill-rule:nonzero}
   ]]>
  </style>
 </defs>
 <g id="Capa_x0020_1">
  <metadata id="CorelCorpID_0Corel-Layer"/>
  <path class="fil0" d="M-0 211.66c0,-116.9 94.76,-211.66 211.66,-211.66l423.34 0c116.9,0 211.66,94.76 211.66,211.66l0 423.34c0,116.9 -94.76,211.66 -211.66,211.66l-423.34 0c-116.9,0 -211.66,-94.76 -211.66,-211.66l0 -423.34z"/>
  <path class="fil1" d="M107.63 501.08c1.85,33.31 10.59,115.63 16.92,141.75 5.83,24.07 7.31,38.03 23.85,55.43 14.87,15.63 35.14,18.81 55.46,23.9 11.08,2.78 22.47,3.73 33.86,5.95l43.4 6.06c35.99,2.74 65.2,5 102.68,6.43 44.78,1.7 74.89,-0.29 117.27,-1.41 6.31,-0.17 11.96,-1.35 18.14,-1.56 16.8,-0.58 37.5,-3 54.78,-4.8 11.34,-1.18 24.45,-2.19 35.14,-4.59 11.18,-2.5 22.53,-3.29 33.66,-6.07 10.61,-2.66 21.4,-4.28 31.29,-8.39 18.47,-7.66 32.51,-20.18 39.81,-39.56 5.71,-15.14 12.05,-47.45 13.92,-65.46 1.15,-11.11 4.3,-23.67 4.82,-34.95 0.54,-11.89 2.82,-24.11 3.4,-36.41 0.53,-11.41 1.86,-24.96 2.84,-36.56 1.05,-12.56 0.57,-25.84 1.53,-38.65 1.48,-19.74 0.67,-94.28 -1.52,-116.11l-2.85 -36.82c-1.16,-24.21 -5.26,-47.89 -8.17,-71.29 -2.54,-20.39 -7.58,-47.22 -13.96,-65.52 -6.52,-18.67 -21.81,-32.25 -39.69,-39.71 -20.61,-8.59 -77.43,-16.85 -100.27,-18.91 -2.91,-0.26 -5.56,-1.12 -8.42,-1.36 -34.88,-2.93 -67.47,-4.58 -102.66,-6.41 -32.63,-1.69 -83.69,0.31 -117.3,1.38l-54.92 4.58c-3.27,0.45 -6.33,0.16 -9.53,0.41 -3.12,0.25 -5.12,1.2 -8.26,1.45l-52.65 7.11c-15.16,3.32 -32.9,5.78 -47.75,11.76 -18.28,7.36 -32.98,21.3 -39.7,39.69 -8.72,23.81 -12.25,55.95 -16.69,82.47 -1.94,11.65 -7.43,75.84 -8.41,90.66 -3.24,49.08 -2.75,106.28 -0.02,155.51z"/>
  <path class="fil2" d="M192.8 375.96c-4.36,1.11 -6.39,1.65 -9.84,3.8 -21.14,13.23 -11.78,55.51 23.32,48.09 13.42,-2.84 23.75,-15.66 19.79,-33.03 -2.83,-12.43 -16.62,-23.09 -33.27,-18.86zm370.77 21.74l-0.02 25.78 77.37 0.09 0.1 -40.05c-10.23,0.28 -28.39,4.78 -39.22,6.6 -4.11,0.69 -34.63,5.34 -38.23,7.58zm-387.26 206.49l45.8 -0.16c1.02,-3.89 1.12,-154.7 0.07,-159.05l-46.27 0.15 0.4 159.06zm64.23 -123.03l22.93 0.37c1.86,10.96 0.3,40.49 0.3,53.42 0,17.95 -0.86,31.62 6.38,46.53 5.4,11.12 16,19.88 30.25,23.5 8.02,2.04 15.99,2.22 24.54,2.05l23.53 -3.62 0.01 -34.14c-10.35,-1.24 -37.92,10.65 -38.23,-23.54 -0.1,-10.13 -1.15,-58.18 0.37,-63.86 5.05,-2.15 32.01,-0.64 40.1,-0.66l-0.27 -36.25c-8.6,-0.26 -33.73,1.21 -40.18,-0.48l-0.41 -47.5 -46.1 8.39 -0.17 39.53 -23.17 0.22 0.12 36.04zm288.55 -36.2c-0.96,6.29 -0.28,58.99 -0.28,70.15 0,22.22 -2.27,44.78 6.01,63.79 12.08,27.78 45.53,35.68 71.1,24.54 10.29,-4.48 12.03,-9.43 19.27,-15.28l1.17 15.78c5.25,0.76 40.26,0.94 43.39,-0.23l0.86 -5.04c0.41,-26.72 0.64,-150.43 -0.69,-153.69l-45.51 0.14c-1.06,4.6 -0.36,64.78 -0.36,74.95 0,16.31 3.42,49.86 -24.6,50.4 -27.18,0.52 -24.15,-27.21 -24.15,-51.23 0,-11.71 1.38,-67.57 -0.38,-74.25l-45.83 -0.03zm-91.51 88.91c3.4,-0.48 19.18,-1.41 21.99,-0.4 2.62,0.95 1.7,-0.21 1.88,3.84 0.77,17.75 -3.75,36.7 -26.52,37.34 -14.27,0.4 -25.92,-6.45 -24.4,-21.3 1.35,-13.17 14.12,-17.68 27.05,-19.48zm-63.53 -44.73c17.08,-4.52 27.41,-11.06 51.76,-11.24 10.45,-0.08 18.11,1.29 25.3,6.11 3.43,2.3 12.27,12.57 9.43,20.33 -6.4,1.02 -20.64,-1.1 -38.12,1.61 -31.91,4.94 -61.67,23.71 -56.69,60.21 5.61,41.13 50.66,47.8 73.74,38.72 13.3,-5.24 13.52,-8.74 20.18,-14.6 1.32,-1.17 0.18,-1.04 2,-1.16l0.96 14.84c5.56,0.74 39.34,1.09 42.5,-0.33 1.52,-1.37 0.73,-36.22 0.73,-38.09 0,-32.95 3.95,-79.55 -13.53,-101.25 -11.02,-13.68 -28.5,-22.44 -54.1,-23.13 -20.02,-0.54 -40.08,2.26 -58.79,8.53 -1.86,0.62 -5.29,1.33 -5.73,3.41l0.36 36.04z"/>
 </g>
</svg>
